<?xml version="1.0" standalone="no"?>
<!DOCTYPE svg PUBLIC "-//W3C//DTD SVG 20010904//EN"
 "http://www.w3.org/TR/2001/REC-SVG-20010904/DTD/svg10.dtd">
<svg version="1.0" xmlns="http://www.w3.org/2000/svg"
 width="1240.000000pt" height="1240.000000pt" viewBox="0 0 1240.000000 1240.000000"
 preserveAspectRatio="xMidYMid meet">
<metadata>
Created by potrace 1.14, written by Peter Selinger 2001-2017
</metadata>
<g transform="translate(0.000000,1240.000000) scale(0.100000,-0.100000)"
fill="#000000" stroke="none">
<path d="M8608 9985 c-3 -3 -101 -11 -243 -20 -27 -2 -70 -6 -95 -9 -46 -5
-115 -12 -205 -21 -47 -5 -72 -9 -121 -19 -35 -7 -97 -18 -124 -21 -14 -2 -63
-12 -110 -23 -47 -12 -97 -23 -110 -26 -14 -2 -61 -14 -105 -27 -44 -12 -93
-24 -110 -26 -16 -3 -34 -9 -40 -13 -5 -4 -25 -11 -44 -15 -19 -4 -99 -29
-178 -55 -78 -27 -143 -46 -143 -43 0 3 -6 1 -12 -4 -7 -6 -62 -27 -123 -48
-60 -21 -116 -42 -122 -48 -7 -5 -13 -7 -13 -4 0 3 -30 -7 -67 -22 -38 -15
-72 -29 -78 -31 -16 -4 -36 -12 -90 -33 -27 -10 -54 -20 -60 -22 -5 -1 -23 -7
-38 -13 -16 -7 -33 -12 -38 -12 -5 0 -20 -6 -32 -14 -12 -8 -35 -17 -50 -20
-16 -3 -34 -9 -40 -13 -7 -5 -30 -15 -52 -22 -22 -7 -49 -16 -60 -21 -19 -9
-180 -70 -235 -90 -14 -5 -38 -15 -55 -21 -16 -7 -34 -13 -40 -15 -5 -1 -74
-25 -152 -52 -79 -28 -143 -48 -143 -45 0 3 -6 1 -12 -5 -7 -5 -40 -18 -73
-28 -74 -22 -67 -20 -85 -27 -8 -3 -42 -13 -75 -22 -33 -9 -85 -23 -115 -31
-30 -9 -66 -18 -79 -20 -14 -3 -28 -7 -33 -10 -4 -3 -16 -7 -25 -9 -18 -3
-131 -31 -166 -40 -32 -9 -51 -13 -210 -44 -86 -17 -174 -33 -195 -36 -37 -6
-100 -15 -137 -20 -50 -8 -125 -17 -180 -21 -33 -2 -87 -7 -120 -11 -84 -9
-492 -9 -595 0 -101 8 -142 13 -235 27 -38 6 -83 12 -100 15 -47 7 -257 44
-290 51 -16 3 -43 7 -60 9 -16 1 -30 4 -30 5 0 1 -13 3 -30 5 -16 2 -46 6 -65
9 -19 3 -51 8 -70 11 -87 13 -109 18 -165 37 -33 12 -85 36 -115 55 -56 35
-170 149 -170 169 0 6 -9 19 -20 29 -11 10 -17 21 -15 26 3 4 1 11 -5 14 -10
6 -87 159 -208 415 -28 58 -61 116 -74 131 -44 48 -59 50 -454 51 -320 1 -374
-1 -401 -15 -38 -20 -40 -28 -43 -179 -6 -308 1 -903 10 -903 1 0 3 -36 5 -80
3 -77 7 -120 21 -265 4 -36 8 -81 9 -100 2 -19 4 -35 5 -35 1 0 3 -18 5 -41 2
-22 6 -58 9 -80 2 -21 7 -64 11 -94 4 -30 9 -66 11 -80 16 -92 36 -210 39
-240 5 -40 31 -166 46 -225 5 -22 12 -53 14 -70 2 -16 4 -30 5 -30 1 0 3 -7 5
-15 1 -9 12 -54 24 -101 12 -48 23 -95 25 -105 2 -11 10 -39 17 -64 7 -25 14
-49 15 -55 2 -5 10 -35 19 -65 9 -30 18 -63 20 -73 6 -29 63 -203 91 -282 79
-221 78 -217 114 -305 12 -30 26 -64 31 -75 4 -11 21 -50 38 -87 17 -36 33
-78 37 -92 3 -14 12 -30 20 -37 8 -6 14 -19 14 -28 0 -9 8 -28 17 -41 10 -14
17 -26 15 -27 -5 -7 214 -439 237 -466 7 -10 10 -17 6 -17 -5 0 -2 -8 6 -17 8
-10 28 -43 44 -73 16 -30 35 -61 42 -68 7 -7 13 -17 13 -22 0 -5 27 -53 61
-107 33 -54 66 -107 72 -118 41 -67 212 -321 219 -323 4 -2 8 -8 8 -14 0 -5
16 -31 36 -56 19 -26 76 -101 126 -167 50 -66 94 -122 97 -125 4 -3 18 -21 31
-40 13 -19 27 -37 31 -40 3 -3 30 -34 60 -70 29 -35 60 -72 69 -80 8 -9 38
-43 65 -75 192 -225 735 -757 879 -860 16 -11 33 -25 40 -30 6 -6 63 -51 126
-100 63 -48 117 -92 118 -97 2 -4 8 -8 13 -8 5 0 17 -8 27 -18 10 -9 30 -26
43 -37 13 -11 49 -40 79 -65 133 -109 331 -307 417 -417 32 -40 63 -73 70 -73
6 0 13 -6 16 -12 3 -10 358 -13 1733 -13 l1729 0 35 22 c56 35 71 51 145 158
95 137 257 299 440 438 37 28 111 80 173 122 39 27 72 52 72 57 0 4 5 8 11 8
6 0 16 6 23 12 7 7 28 24 46 38 18 14 67 54 109 88 68 57 111 95 240 209 36
32 88 75 175 148 80 66 92 82 89 118 -1 15 -41 107 -90 205 -48 97 -88 180
-89 185 -1 4 -3 10 -4 15 -1 4 -2 10 -1 14 0 5 -4 8 -9 8 -5 0 -9 3 -8 7 1 9
-5 25 -33 90 -11 23 -19 48 -19 56 0 7 -3 17 -7 21 -5 4 -8 11 -9 14 0 4 -6
21 -13 37 -7 17 -25 66 -41 110 -16 44 -47 132 -70 195 -23 63 -45 126 -50
140 -4 14 -20 57 -35 95 -14 39 -28 78 -30 89 -2 10 -9 24 -15 30 -5 7 -8 15
-5 18 3 3 -6 36 -21 74 -14 38 -25 70 -25 71 0 2 -1 8 -4 15 -2 7 -25 81 -50
163 -45 145 -109 339 -125 380 -5 11 -20 52 -35 90 -78 203 -131 295 -224 383
-47 45 -182 132 -204 132 -7 0 -18 5 -24 11 -6 6 -17 12 -24 13 -8 1 -34 9
-59 16 -25 7 -56 15 -70 17 -14 2 -41 6 -60 9 -44 7 -202 12 -213 6 -5 -2 -34
-6 -65 -8 -31 -2 -68 -6 -82 -9 -14 -3 -37 -7 -52 -10 -16 -3 -40 -7 -55 -10
-31 -5 -48 -9 -113 -23 -25 -6 -62 -13 -84 -16 -21 -4 -41 -8 -45 -10 -3 -2
-28 -7 -56 -11 -27 -4 -59 -9 -70 -10 -11 -2 -20 -4 -20 -5 0 -1 -9 -3 -20 -5
-74 -10 -123 -18 -145 -22 -14 -2 -38 -5 -55 -7 -16 -2 -57 -7 -90 -11 -99
-13 -125 -15 -250 -20 -66 -2 -122 -5 -125 -6 -32 -8 -341 11 -425 26 -22 4
-53 8 -70 10 -16 1 -38 6 -47 10 -9 4 -22 4 -28 0 -5 -3 -10 -1 -10 5 0 6 -4
9 -9 6 -4 -3 -21 -1 -37 4 -16 5 -50 14 -76 21 -44 11 -66 29 -35 29 6 0 39
12 72 26 33 14 65 26 70 28 6 1 39 15 75 31 36 17 67 30 70 31 3 0 37 16 75
34 39 19 72 35 75 35 3 1 72 34 153 73 82 40 153 72 158 72 5 0 9 4 9 10 0 5
3 9 8 8 7 -1 21 4 117 47 66 30 107 48 115 50 3 0 30 12 60 26 30 14 111 48
180 74 69 26 134 51 145 56 42 18 253 81 295 89 3 1 23 6 45 11 22 6 49 12 61
14 11 1 45 8 75 14 166 34 399 30 551 -10 92 -24 86 -22 132 -42 21 -9 42 -17
47 -17 5 0 9 -4 9 -10 0 -5 6 -10 14 -10 7 0 25 -9 38 -20 14 -10 27 -17 30
-15 3 3 15 -6 28 -20 13 -14 28 -25 33 -25 5 0 41 -33 81 -72 68 -69 196 -248
196 -275 0 -7 4 -13 10 -13 5 0 9 -3 8 -7 -1 -8 4 -22 46 -115 28 -64 92 -249
131 -383 14 -49 40 -133 56 -185 16 -53 31 -105 34 -115 2 -11 14 -47 25 -80
12 -33 23 -68 25 -78 5 -24 107 -342 152 -477 115 -339 197 -554 299 -778 13
-29 26 -61 28 -70 4 -21 10 -39 43 -119 23 -57 94 -153 112 -153 8 0 133 122
161 156 13 16 126 158 163 204 7 8 29 38 49 66 49 67 45 94 -30 204 -66 96
-92 148 -122 246 -12 38 -25 78 -30 89 -5 11 -16 43 -24 70 -8 28 -33 111 -56
185 -23 74 -57 189 -76 255 -19 66 -38 127 -41 135 -3 8 -14 42 -23 75 -10 33
-36 121 -59 195 -23 74 -44 142 -46 150 -7 26 -145 434 -154 455 -17 39 -95
240 -97 250 -2 10 -16 42 -71 165 -58 130 -68 150 -75 150 -5 0 -8 4 -8 10 0
5 -16 34 -35 65 -82 128 -199 253 -312 333 -116 82 -308 159 -447 177 -17 3
-42 7 -56 10 -25 5 -89 14 -145 21 -143 18 -439 23 -580 10 -44 -4 -98 -8
-120 -10 -46 -4 -108 -13 -180 -27 -27 -6 -61 -12 -75 -15 -47 -9 -225 -55
-250 -64 -14 -6 -34 -12 -45 -14 -33 -6 -264 -96 -352 -137 -46 -21 -83 -35
-83 -33 0 3 -12 -3 -27 -14 -16 -11 -32 -21 -38 -22 -5 -1 -20 -6 -33 -11 -13
-5 -27 -9 -31 -9 -5 0 -14 -7 -21 -15 -6 -8 -15 -14 -18 -13 -4 1 -41 -15 -82
-34 -41 -20 -128 -61 -192 -91 -204 -97 -271 -129 -328 -154 -30 -14 -62 -29
-70 -34 -8 -5 -22 -12 -30 -15 -51 -19 -96 -39 -100 -44 -3 -3 -12 -6 -20 -8
-8 -2 -32 -12 -55 -22 -50 -23 -227 -92 -240 -94 -5 -1 -15 -5 -22 -9 -16 -10
-161 -56 -197 -63 -16 -3 -33 -7 -39 -11 -31 -19 -221 -10 -277 14 -8 3 -20 7
-27 9 -7 1 -33 16 -58 33 -25 17 -50 31 -56 31 -5 0 -9 5 -9 10 0 6 -5 10 -10
10 -17 0 -245 115 -292 148 -46 32 -74 60 -66 67 4 4 29 9 108 19 24 4 58 10
110 21 14 3 39 8 55 11 17 3 68 14 115 25 47 11 96 22 110 25 14 2 32 7 40 10
8 3 25 8 37 10 12 2 78 20 145 40 68 20 131 37 140 39 9 2 26 9 37 15 12 6 21
9 21 6 0 -7 459 153 470 164 3 3 14 7 25 8 11 2 34 10 50 17 66 30 334 135
344 135 6 0 11 5 11 10 0 6 6 10 13 10 6 0 48 16 92 36 44 19 85 36 90 38 6 1
26 9 45 18 143 66 207 94 222 97 4 1 40 16 80 34 65 30 245 101 430 171 37 14
77 27 90 30 13 2 34 9 48 15 60 26 390 113 480 126 14 2 26 4 28 6 3 2 12 4
65 13 27 4 56 9 65 10 10 2 44 7 77 10 33 4 71 9 85 11 14 3 77 7 139 9 62 3
116 8 119 10 2 3 13 1 23 -4 12 -7 20 -7 24 0 4 6 11 7 17 4 6 -4 52 -8 102
-9 84 -3 135 -8 211 -22 17 -3 37 -6 45 -7 29 -4 95 -18 110 -22 8 -3 15 -5
15 -4 0 0 32 -10 70 -23 259 -89 431 -224 542 -427 30 -54 195 -483 196 -507
0 -7 4 -13 9 -13 4 0 8 -8 8 -19 0 -10 7 -36 16 -57 19 -44 83 -223 120 -334
13 -41 27 -81 29 -88 2 -7 5 -16 6 -20 1 -4 10 -28 20 -54 10 -27 16 -48 12
-48 -4 0 -2 -5 5 -12 7 -7 12 -20 12 -30 0 -10 4 -26 9 -36 5 -9 23 -64 41
-122 33 -106 45 -140 61 -172 5 -10 9 -27 9 -37 0 -11 5 -23 10 -26 6 -3 10
-12 10 -19 0 -8 8 -31 17 -52 9 -22 18 -46 19 -54 2 -8 7 -23 13 -35 8 -17 20
-46 26 -65 1 -3 7 -18 13 -33 7 -16 12 -31 12 -33 0 -5 70 -192 90 -239 4 -11
18 -49 30 -85 12 -36 25 -72 28 -80 3 -8 6 -17 7 -20 0 -3 9 -30 19 -60 10
-30 20 -62 22 -70 3 -8 5 -17 5 -20 1 -3 4 -9 9 -15 4 -5 13 -28 20 -50 12
-39 119 -265 130 -275 3 -3 11 -17 17 -32 10 -22 19 -28 43 -28 24 0 36 9 60
43 16 23 34 47 40 54 5 7 10 16 10 20 0 5 10 19 23 33 12 14 31 42 42 63 11
21 27 46 36 56 9 10 20 27 23 39 4 12 12 22 17 22 5 0 9 5 9 10 0 6 21 42 46
80 46 68 57 110 42 160 -7 24 -39 124 -45 140 -3 8 -7 20 -8 25 -4 17 -56 169
-65 190 -23 54 -114 311 -112 318 1 4 -3 7 -8 7 -5 0 -9 3 -8 8 3 9 -20 77
-38 110 -8 15 -14 34 -14 43 0 9 -3 19 -7 23 -5 4 -8 11 -9 14 0 4 -6 20 -12
35 -7 16 -12 30 -12 32 0 2 -5 16 -12 32 -6 15 -12 33 -14 38 -5 17 -106 299
-115 320 -13 32 -70 198 -73 215 -1 8 -5 22 -8 30 -3 8 -11 35 -18 60 -7 25
-16 56 -21 70 -11 35 -51 173 -53 185 -1 6 -5 15 -8 21 -4 6 -9 21 -12 35 -6
34 -68 208 -110 311 -70 172 -202 427 -227 436 -5 2 -9 8 -9 14 0 35 -273 308
-308 308 -5 0 -15 7 -22 15 -22 27 -262 154 -322 170 -5 2 -9 3 -10 5 -2 1
-10 3 -18 5 -8 2 -38 12 -65 23 -43 16 -178 55 -236 68 -10 2 -29 6 -41 9 -13
3 -34 7 -48 10 -14 3 -36 7 -50 10 -14 3 -47 7 -75 10 -27 3 -63 8 -80 10
-103 14 -328 21 -344 10 -6 -3 -11 -1 -11 5 0 6 -3 9 -7 7 -5 -3 -60 -8 -124
-11 -63 -4 -124 -8 -135 -10 -10 -2 -50 -7 -88 -11 -86 -9 -74 -7 -316 -52
-14 -2 -43 -9 -65 -14 -22 -5 -51 -12 -65 -15 -14 -2 -34 -8 -45 -11 -11 -4
-24 -8 -30 -9 -8 -1 -85 -22 -140 -38 -5 -1 -30 -8 -55 -15 -25 -6 -58 -17
-75 -24 -16 -6 -36 -13 -42 -14 -20 -5 -37 -10 -53 -16 -8 -3 -37 -13 -65 -22
-27 -8 -59 -19 -70 -24 -11 -5 -72 -28 -135 -51 -63 -23 -119 -45 -125 -48 -5
-4 -14 -7 -20 -8 -18 -4 -399 -161 -530 -219 -16 -8 -56 -25 -88 -39 -32 -14
-60 -26 -62 -26 -2 0 -28 -11 -57 -24 -60 -27 -130 -58 -138 -61 -3 -1 -17 -7
-32 -13 -300 -124 -718 -281 -793 -297 -5 -1 -35 -9 -66 -19 -65 -19 -63 -19
-195 -45 -56 -11 -130 -23 -165 -27 -35 -3 -67 -8 -70 -10 -4 -2 -62 -6 -130
-10 -262 -13 -638 -2 -779 24 -108 21 -242 80 -291 131 -9 9 -71 68 -139 131
-215 201 -282 268 -276 278 3 5 26 6 58 1 29 -5 78 -11 108 -15 30 -3 69 -8
85 -10 238 -39 1027 -51 1325 -20 51 5 140 16 181 22 20 2 52 7 70 9 19 3 45
7 59 10 13 2 40 7 60 10 38 6 70 12 110 20 14 3 34 7 45 9 32 7 168 37 188 42
9 2 25 6 35 8 9 2 53 14 97 26 44 12 105 28 135 37 30 8 147 44 260 81 113 36
207 66 210 67 3 1 13 5 22 9 9 4 25 9 35 11 10 2 20 4 23 5 3 1 8 2 13 1 4 0
7 3 7 9 0 6 3 9 8 8 6 -2 55 14 122 39 8 4 18 7 23 8 4 2 9 4 12 5 3 1 8 3 13
5 4 1 16 5 27 9 11 5 45 17 75 29 30 11 69 26 85 32 17 7 47 18 67 25 21 6 40
16 44 21 3 5 9 7 14 4 4 -3 21 2 36 10 16 8 35 15 42 15 7 0 23 7 35 15 13 8
32 16 42 18 11 2 34 9 50 16 17 6 44 17 60 23 17 6 36 16 43 21 7 5 15 7 19 3
3 -3 16 0 27 7 12 7 75 32 141 56 66 23 134 48 150 56 27 12 168 61 205 71 8
2 83 27 165 54 83 28 157 52 165 54 8 2 22 6 30 9 8 3 35 11 60 17 25 6 63 17
85 25 22 7 54 15 70 18 17 3 63 14 103 25 40 12 75 21 77 21 3 1 6 1 8 2 1 0
11 2 22 3 11 2 45 8 75 14 30 6 69 14 85 17 17 3 41 7 55 10 13 2 42 7 65 10
22 3 47 8 55 10 8 2 44 7 80 11 36 3 79 7 95 9 214 26 590 21 810 -10 131 -19
183 -27 210 -35 17 -5 44 -11 60 -13 17 -3 37 -8 45 -11 8 -3 29 -7 45 -10 17
-3 62 -14 100 -26 39 -12 77 -23 85 -25 67 -17 216 -71 375 -136 17 -7 33 -12
38 -11 4 1 7 -2 7 -8 0 -5 9 -10 20 -10 11 0 20 -4 20 -10 0 -5 6 -10 14 -10
16 0 110 -51 114 -62 2 -4 10 -8 17 -8 8 0 20 -6 27 -12 7 -7 39 -32 71 -56
55 -41 169 -150 212 -203 80 -98 197 -307 211 -377 1 -8 6 -21 10 -30 4 -9 9
-23 11 -29 1 -7 5 -19 6 -25 2 -7 7 -20 10 -28 7 -20 28 -108 33 -140 2 -14 6
-41 10 -60 10 -58 13 -281 4 -335 -4 -27 -11 -70 -14 -95 -8 -62 -15 -99 -26
-140 -5 -19 -12 -51 -15 -70 -3 -19 -11 -60 -17 -90 -6 -30 -13 -64 -14 -75
-2 -18 -5 -30 -18 -90 -3 -11 -17 -65 -31 -120 -14 -55 -27 -107 -29 -115 -2
-8 -10 -35 -17 -60 -7 -25 -13 -48 -15 -52 -1 -5 -2 -9 -4 -10 -1 -2 -3 -11
-5 -21 -4 -19 -29 -107 -52 -177 -8 -25 -17 -54 -19 -64 -2 -10 -8 -33 -13
-50 -26 -80 -35 -218 -20 -304 13 -77 47 -188 71 -232 41 -73 63 -106 82 -122
10 -10 15 -18 11 -18 -4 0 13 -16 38 -35 50 -38 57 -41 57 -22 0 7 11 24 24
39 14 14 22 29 19 32 -4 3 -1 6 5 6 7 0 12 5 12 12 0 6 10 25 23 42 71 94 124
198 200 387 70 173 70 172 73 184 1 6 9 26 18 46 8 20 12 39 9 43 -4 3 -2 6 4
6 6 0 14 15 18 33 4 17 8 34 9 37 1 3 9 25 18 50 18 47 75 233 83 266 2 10 22
87 45 169 22 83 43 164 45 180 3 17 8 37 10 45 2 8 6 26 9 40 3 14 7 34 9 45
3 11 8 42 11 68 4 27 9 59 12 70 12 62 19 179 19 327 0 186 -8 273 -39 405
-18 79 -30 122 -38 131 -5 7 -8 16 -7 20 1 5 0 12 -1 17 -1 4 -3 10 -4 15 -1
4 -9 23 -18 43 -9 20 -19 47 -23 60 -14 46 -79 194 -87 197 -4 2 -8 9 -8 16 0
18 -24 66 -32 66 -5 0 -8 4 -8 9 0 17 -69 129 -123 199 -101 133 -210 240
-358 351 -52 39 -99 75 -106 81 -7 5 -17 10 -23 10 -5 0 -10 5 -10 11 0 5 -4
8 -9 5 -5 -4 -11 -2 -13 2 -10 26 -352 197 -463 232 -22 7 -44 16 -49 21 -6 5
-20 9 -31 9 -12 0 -25 3 -29 7 -3 4 -13 8 -21 9 -8 1 -45 12 -82 24 -38 12
-77 24 -88 26 -11 2 -33 7 -50 11 -16 4 -32 7 -35 8 -3 0 -9 3 -15 6 -5 4 -18
5 -27 4 -10 -2 -18 1 -18 6 0 4 -7 6 -15 3 -8 -3 -20 -2 -27 2 -7 4 -28 9 -48
11 -37 4 -49 6 -90 16 -30 7 -176 26 -245 32 -27 2 -61 6 -75 9 -62 13 -197
19 -482 21 -169 2 -308 2 -310 0z"/>
</g>
</svg>
