<?xml version="1.0" encoding="utf-8"?>
<!-- Generator: Adobe Illustrator 27.0.0, SVG Export Plug-In . SVG Version: 6.00 Build 0)  -->
<svg version="1.1" id="Layer_1" xmlns="http://www.w3.org/2000/svg" xmlns:xlink="http://www.w3.org/1999/xlink" x="0px" y="0px"
	 viewBox="0 0 309.7 220.2" style="enable-background:new 0 0 309.7 220.2;" xml:space="preserve">
<style type="text/css">
	.st0{fill:#FFFFFF;stroke:#FFFFFF;stroke-miterlimit:10;}
</style>
<path class="st0" d="M201.1,17.4c11.9-1.3,23.2-2.2,34.9-0.6c16.4,1.5,33,7,44.4,19.4c4.7,5.2,7.6,11.5,9.8,18.3
	c3.6,11,1.9,21.7-0.9,32.5c-2.2,8.6-5.1,16.9-8.6,24.9c-1.4,3.1-3.6,5.9-5.4,8.8c-4.9-3.8-6.8-11.8-5.2-17.4
	c2.1-7.2,4.4-14.4,5.7-21.9c0.9-4.8,2.2-9.6,1.9-14.6c-1-13.7-7.9-25-21.1-30.4c-57.9-25-100.3,22.2-156.3,23.1
	c-10.3,0.2-20.5,0-30.7-1.7c-0.4-0.1-0.7,0.1-1.3,0.2c0.4,1.7,1.6,2.5,2.6,3.4c2.3,2.2,4.8,4.3,7,6.6c4.4,4.6,10.1,4.8,15.8,5.1
	c9.2,0.4,18.5,0.1,27.3-2.6c7.5-2.2,14.8-5.2,22-8.2C166.9,52,192.2,40,219,44.7c11.8,2.4,22.3,6.9,28.6,17.8
	c3.7,6.5,6.2,13.6,8.2,20.7c4.2,15.2,10.9,29.5,15.5,44.6c0.2,0.5,0.2,1.2-0.1,1.7c-2.4,3.9-4.9,7.7-7.4,11.5
	c-0.1,0.2-0.5,0.2-1.1,0.4c-2.2-3.7-4-7.6-5.3-11.8c-2.9-9-6.8-17.7-9.6-26.7c-3.1-10.1-6.8-19.9-10.5-29.8
	c-7.5-19.2-35.8-16.8-51.9-12.2c-12.5,3.3-24,9.1-35.9,14c-13.6,5.6-27.5,10.3-42.1,12.5c-0.4,0.1-0.7,0.3-1.2,0.5
	c2.9,3.6,7.2,4.4,10.8,6.7c4.7,3.3,9.2,2.5,14.4,0.7c13.5-4.7,25.9-11.8,39-17.3c14-5.8,28.4-7.2,43.2-4.3c9.6,1.8,15.9,8.1,20,16.6
	c7.6,16.9,11.9,35.2,17.7,52.7c0.7,2.3,2.1,4.4,3.5,6.3c0.7,0.9,1.3,2,0.6,2.9c-2.9,3.8-5.7,7.7-9.3,11c-2.8-2.2-3-5.3-4.1-7.9
	c-5.6-12.1-9.3-25-13.3-37.7c-2.5-8.1-4.3-16.5-9.7-23.4c-12.5-15.2-33.9-7.1-48.9-0.5c-8.1,3.5-15.8,7.8-24,10.8
	c-0.3,0.1-0.6,0.4-1.3,0.9c15.2,4.8,30.6,2.5,45.8-0.7c6.6-1.4,13.1-2.2,19.5,1.1c3.4,1.8,5.9,4.2,7.5,7.7c4.2,9,6.3,18.7,9.7,27.9
	c3.5,9.4,6.4,19.1,11.4,27.9c0.7,1.3,0.6,2.2-0.5,3c-6.5,5.2-12.3,11.2-19.3,15.8c-5.9,4-11.4,8.7-15.3,14.9
	c-1.2,1.9-2.8,2.7-5.1,2.7c-27.3,0-54.6,0-82,0c-1.2,0-2.3-0.1-3.1-1.2c-6.2-8.1-14.3-14.1-22.2-20.2c-5.4-4.1-10-9.1-14.8-13.8
	c-17.3-17.2-30.7-37.7-40.4-60c-11.7-26.7-15.6-56-14.8-85c0.1-6.7-0.9-6.1,6.3-6.1c4.1,0,8.1,0.1,12.2,0c2.2-0.1,3.3,0.9,4.2,2.8
	c2.2,4.6,4.1,9.4,6.9,13.7c2.7,4.1,6.6,6,11.1,6.6c7.6,1,15,2.8,22.6,3.4c23.7,1.6,46.8-5.3,68.7-13.9
	C168.9,26.1,184.4,19.7,201.1,17.4z"/>
</svg>
